<?xml version="1.0" standalone="no"?>
<!DOCTYPE svg PUBLIC "-//W3C//DTD SVG 20010904//EN"
 "http://www.w3.org/TR/2001/REC-SVG-20010904/DTD/svg10.dtd">
<svg version="1.0" xmlns="http://www.w3.org/2000/svg"
 width="900.000000pt" height="567.000000pt" viewBox="0 0 900.000000 567.000000"
 preserveAspectRatio="xMidYMid meet">
<metadata>
Created by potrace 1.10, written by Peter Selinger 2001-2011
</metadata>
<g transform="translate(0.000000,567.000000) scale(0.100000,-0.100000)"
fill="#000000" stroke="none">
<path d="M1021 4488 c-5 -13 -17 -50 -26 -83 -10 -33 -24 -76 -31 -95 -27 -71
-22 -88 29 -104 16 -5 17 -47 15 -753 l-3 -748 -429 -3 c-418 -2 -467 -6 -450
-33 3 -5 195 -9 432 -9 235 0 433 -4 439 -8 10 -6 13 -111 15 -448 l3 -439 25
0 25 0 5 312 c5 293 11 364 25 297 3 -16 13 -44 21 -62 8 -18 14 -41 14 -50 0
-10 7 -27 15 -38 8 -10 15 -25 15 -33 0 -28 131 -277 168 -321 46 -55 104
-110 116 -110 5 0 17 -6 25 -14 28 -23 120 -35 181 -23 57 11 140 54 176 91
21 22 100 127 121 161 31 51 87 176 130 290 8 22 21 55 29 73 8 18 14 39 14
47 0 8 6 29 14 47 20 50 37 99 47 143 6 22 17 50 25 63 l14 22 520 0 c458 0
520 -2 534 -16 9 -8 16 -24 16 -34 0 -11 6 -34 14 -52 17 -42 35 -94 46 -133
12 -45 30 -92 61 -169 16 -38 29 -73 29 -78 0 -16 91 -198 123 -247 40 -59
135 -154 177 -176 163 -84 327 -30 455 150 49 68 145 250 145 276 0 8 7 24 15
35 8 10 15 28 15 39 0 11 6 29 14 40 7 11 16 31 19 45 3 14 11 41 17 60 53
149 70 203 70 222 0 10 9 22 19 28 31 16 1046 14 1059 -2 5 -7 15 -31 22 -53
7 -22 18 -56 25 -75 7 -19 18 -51 24 -70 7 -19 16 -48 21 -65 5 -16 18 -55 30
-85 12 -30 25 -66 30 -80 16 -49 86 -201 113 -245 95 -154 184 -230 297 -252
62 -13 148 1 207 31 96 50 211 212 298 421 35 83 91 237 105 290 9 34 24 78
49 145 l17 45 849 0 850 0 5 -35 c6 -43 0 -43 175 10 17 5 50 14 75 21 81 21
77 19 58 33 -9 7 -36 18 -60 25 -24 7 -58 19 -76 27 -18 8 -43 14 -55 14 -12
1 -33 7 -47 15 -14 8 -35 14 -47 15 -19 0 -23 -6 -23 -28 0 -51 -5 -52 -276
-52 -291 0 -263 -11 -303 120 -13 41 -28 86 -33 100 -6 14 -21 57 -34 95 -35
105 -53 153 -63 173 -5 9 -25 51 -45 93 -20 41 -47 92 -61 113 -14 20 -25 41
-25 45 0 4 -27 37 -59 73 -162 176 -370 183 -527 17 -63 -67 -123 -164 -181
-299 -9 -19 -22 -48 -29 -63 -8 -16 -14 -36 -14 -46 0 -9 -7 -26 -15 -37 -8
-10 -15 -27 -15 -36 0 -10 -6 -32 -14 -50 -24 -58 -38 -100 -68 -210 -8 -25
-22 -56 -32 -67 -19 -21 -26 -21 -531 -21 -583 0 -533 -8 -561 91 -25 92 -32
113 -45 149 -120 343 -198 497 -306 602 -130 126 -287 140 -426 38 -42 -31
-133 -132 -148 -165 -5 -11 -19 -38 -32 -60 -12 -22 -37 -76 -56 -120 -18 -44
-39 -92 -47 -107 -8 -14 -14 -35 -14 -45 0 -10 -5 -24 -11 -30 -6 -6 -14 -26
-19 -44 -4 -19 -14 -50 -21 -69 -6 -19 -17 -51 -24 -70 -7 -19 -20 -60 -30
-90 -10 -30 -22 -61 -28 -68 -7 -9 -121 -12 -531 -10 l-521 3 -22 45 c-12 25
-22 55 -22 67 -1 12 -7 37 -15 55 -19 47 -36 98 -46 137 -5 18 -13 38 -19 44
-6 6 -11 19 -11 29 0 17 -7 35 -60 153 -15 33 -32 71 -38 85 -94 208 -258 340
-410 328 -185 -14 -331 -189 -468 -560 -47 -126 -65 -179 -73 -213 -4 -17 -13
-40 -19 -52 -7 -12 -12 -33 -12 -46 0 -13 -9 -36 -21 -51 l-20 -26 -514 0
c-283 0 -516 4 -519 8 -8 13 -10 1478 -2 1491 4 6 15 11 25 11 29 0 39 19 30
53 -12 47 -36 128 -48 162 -6 17 -13 42 -16 58 -7 33 -32 36 -44 5z m1796
-946 c55 -22 118 -82 179 -168 25 -35 114 -218 114 -234 0 -6 5 -21 12 -33 13
-23 63 -161 78 -212 4 -16 17 -57 29 -90 11 -33 21 -70 21 -82 l0 -23 -505 0
-505 0 0 40 c0 21 6 54 14 72 17 42 35 94 46 133 5 17 18 55 30 85 12 30 24
64 27 75 3 11 11 34 18 50 26 58 56 120 65 135 5 8 25 42 45 76 45 76 105 136
170 169 58 29 103 31 162 7z m2299 -2 c89 -41 167 -136 244 -295 45 -94 49
-104 102 -250 46 -124 69 -201 75 -252 l5 -43 -506 0 c-436 0 -506 2 -506 15
0 28 37 154 66 223 8 18 14 39 14 47 0 8 6 29 14 47 8 18 22 53 31 78 15 39
98 212 132 274 7 12 38 49 70 82 89 90 171 114 259 74z m2296 3 c60 -23 103
-58 153 -123 58 -75 94 -139 134 -235 18 -44 39 -92 47 -107 8 -14 14 -33 14
-42 0 -9 5 -24 10 -34 23 -38 90 -265 85 -283 -6 -19 -22 -19 -513 -17 l-507
3 -3 23 c-3 21 14 87 41 152 5 14 13 39 17 55 9 35 28 87 46 130 7 17 20 50
30 75 9 25 32 77 51 115 81 164 137 234 228 280 58 29 108 32 167 8z m-5316
-898 c6 -16 -25 -131 -52 -193 -8 -18 -14 -39 -14 -47 0 -8 -6 -29 -14 -47 -8
-18 -22 -53 -31 -78 -29 -79 -92 -213 -130 -279 -26 -46 -82 -110 -128 -145
-48 -38 -53 -40 -126 -40 -72 -1 -79 1 -122 34 -85 65 -164 194 -244 400 -39
101 -45 117 -61 170 -9 30 -22 71 -29 90 -37 106 -44 133 -39 141 3 5 219 9
495 9 430 0 490 -2 495 -15z m2300 4 c3 -6 -8 -57 -26 -112 -31 -97 -39 -122
-76 -219 -9 -24 -23 -61 -31 -83 -36 -93 -118 -248 -162 -302 -26 -32 -67 -71
-91 -88 -40 -26 -53 -30 -120 -30 -67 0 -80 4 -120 30 -24 17 -66 57 -93 90
-73 91 -197 358 -237 510 -4 17 -12 41 -17 55 -25 62 -45 139 -39 149 10 15
1002 16 1012 0z m2298 2 c3 -5 -4 -37 -15 -72 -12 -35 -25 -77 -29 -94 -5 -16
-18 -55 -30 -85 -12 -30 -26 -68 -30 -85 -15 -52 -54 -144 -102 -240 -61 -123
-184 -254 -240 -256 -12 0 -32 -4 -42 -8 -25 -10 -109 13 -145 39 -35 24 -116
112 -133 145 -32 58 -112 223 -119 245 -4 14 -17 50 -29 80 -12 30 -25 69 -30
85 -9 31 -26 83 -42 125 -24 60 -35 119 -24 124 21 9 1005 6 1010 -3z"/>
</g>
</svg>
